<svg width="59.000000" height="25.625000" viewBox="0 0 59 25.625" fill="none" xmlns="http://www.w3.org/2000/svg" xmlns:xlink="http://www.w3.org/1999/xlink">
	<desc>
			Created with Pixso.
	</desc>
	<defs>
		<clipPath id="clip2_17">
			<rect id="Frame" width="20.000000" height="22.000000" transform="translate(12.000000 0.312500)" fill="white" fill-opacity="0"/>
		</clipPath>
	</defs>
	<rect id="Frame" width="20.000000" height="22.000000" transform="translate(12.000000 0.312500)" fill="#FFFFFF" fill-opacity="0"/>
	<g clip-path="url(#clip2_17)">
		<path id="Vector" d="M31.7297 19.4525L30 4.7125L26.8108 4.7125C26.4324 2.4575 24.4324 0.752502 22 0.752502C19.5675 0.752502 17.5675 2.4575 17.1892 4.7125L14 4.7125L12.2703 19.4525C12.1621 20.2775 12.4865 20.7725 12.7567 21.1025C13.027 21.3775 13.5134 21.7625 14.4324 21.7625L29.5675 21.7625C30.2703 21.7625 30.8649 21.5425 31.2432 21.0475C31.6216 20.6625 31.7837 20.0575 31.7297 19.4525ZM22 2.9525C23.1892 2.9525 24.2162 3.7225 24.5405 4.7125L19.4054 4.7125C19.7837 3.6675 20.8108 2.9525 22 2.9525ZM14.4324 19.5625L15.9459 6.91251L17.1351 6.91251L17.1351 8.5625C17.1351 9.1675 17.6216 9.66251 18.2162 9.66251C18.8108 9.66251 19.2972 9.1675 19.2972 8.5625L19.2972 6.91251L24.7026 6.91251L24.7026 8.5625C24.7026 9.1675 25.1892 9.66251 25.7837 9.66251C26.3783 9.66251 26.8649 9.1675 26.8649 8.5625L26.8649 6.91251L28.0541 6.91251L29.5675 19.5625L14.4324 19.5625Z" fill="#000000" fill-opacity="1.000000" fill-rule="nonzero"/>
	</g>
	<path id="0" d="M43.7603 16.3018Q44.5732 15.1445 44.5732 12.7642L44.5732 11.0063Q44.5513 8.70654 43.7383 7.60425Q43.5483 7.34666 43.3087 7.14926Q42.5231 6.50195 41.2041 6.50195Q39.915 6.50195 39.1349 7.13206Q38.8645 7.35045 38.6553 7.64453Q37.8423 8.78711 37.8423 11.1382L37.8423 12.9473Q37.8716 15.1958 38.6919 16.3274Q38.9117 16.6306 39.1951 16.8525Q39.9694 17.459 41.2188 17.459Q42.475 17.459 43.2477 16.8477Q43.5381 16.6179 43.7603 16.3018ZM42.7349 8.40259Q43.2183 9.18994 43.2183 10.9111L43.2183 13.1304Q43.1963 14.8003 42.7092 15.5767Q42.5124 15.8903 42.2314 16.0773Q41.8168 16.353 41.2188 16.353Q40.6528 16.353 40.2464 16.0984Q39.9218 15.8949 39.699 15.5291Q39.1973 14.7051 39.1973 12.9766L39.1973 10.8086Q39.2119 9.18262 39.688 8.39893Q39.8645 8.10832 40.1186 7.92548Q40.5497 7.61523 41.2041 7.61523Q41.8637 7.61523 42.2996 7.92747Q42.5559 8.11106 42.7349 8.40259Z" fill="#B4604D" fill-opacity="1.000000" fill-rule="evenodd"/>
</svg>
